<svg width="62" height="24" viewBox="0 0 62 24" fill="none" xmlns="http://www.w3.org/2000/svg">
<path d="M4.89337 7.7021H4.82331V16.9463C4.82331 17.7175 5.45726 18.3486 6.23226 18.3486H7.44701V21.5706C7.44701 22.3446 8.07782 22.9722 8.85573 22.9722C9.6335 22.9722 10.2641 22.3446 10.2644 21.5706V18.3486H12.1626V21.5706C12.1626 22.3446 12.7938 22.9722 13.5716 22.9722C14.3495 22.9722 14.9799 22.3446 14.9804 21.5706V18.3486H16.1642C16.9392 18.3486 17.5729 17.7175 17.5729 16.9463V7.7021H4.89337ZM7.69974 4.37184C7.69974 4.70098 7.9677 4.96783 8.29835 4.96783C8.62901 4.96783 8.89723 4.70098 8.89723 4.37184C8.89723 4.0427 8.62901 3.77585 8.29835 3.77585C7.9677 3.77585 7.69974 4.0427 7.69974 4.37184ZM13.4993 4.37184C13.4993 4.70098 13.7674 4.96783 14.0981 4.96783C14.4287 4.96783 14.6968 4.70098 14.6968 4.37184C14.6968 4.0427 14.4287 3.77585 14.0981 3.77585C13.7674 3.77585 13.4993 4.0427 13.4993 4.37184ZM4.83923 7.21154C4.83675 7.14754 4.83512 7.08353 4.83512 7.01925C4.83512 6.58925 4.88949 6.17068 4.99208 5.7684C5.38752 4.21784 6.50249 2.90899 8.00956 2.13214L7.03183 0.336723C6.97153 0.225867 7.0128 0.0875894 7.12399 0.0275891C7.23509 -0.0324111 7.37414 0.00871928 7.43437 0.119296L8.42365 1.93614C9.26516 1.57272 10.2106 1.369 11.2098 1.369C12.2015 1.369 13.1401 1.56986 13.9769 1.92815L14.962 0.119296C15.0222 0.00872545 15.1611 -0.0324111 15.2722 0.0275891C15.3833 0.0875894 15.4247 0.225867 15.3644 0.336723L14.3919 2.12243C15.9729 2.93129 17.1254 4.32441 17.4741 5.96869C17.5137 6.15468 17.5427 6.34383 17.5611 6.53554V7.21154H4.83915H4.83923ZM20.8879 8.85895C20.8879 8.08495 20.257 7.45724 19.4792 7.45724C18.7013 7.45724 18.0706 8.08495 18.0704 8.85895V14.7492C18.0704 15.5235 18.7013 16.1512 19.4792 16.1512C20.257 16.1512 20.8876 15.5235 20.8879 14.7492V8.85895ZM4.31863 8.85895V14.7492C4.31863 15.5235 3.68761 16.1512 2.90967 16.1512C2.13186 16.1512 1.50131 15.5235 1.50098 14.7492V8.85895C1.50098 8.08495 2.13186 7.45724 2.90967 7.45724C3.68761 7.45724 4.31829 8.08495 4.31863 8.85895Z" fill="#7B8794"/>
<path d="M61.7452 4.20335H59.9271L55.9786 13.6162H56.7855L52.8482 4.21425H50.9762L55.4407 14.5265L55.0857 15.3296C54.6878 16.2184 53.9346 16.6038 53.2139 16.6038H52.622V18.221H53.1924C54.7952 18.221 56.0647 17.3644 56.7424 15.7367L61.7452 4.20335ZM50.008 14.9227V4.21425H48.3943V5.43514C47.4904 4.53538 46.2426 4 44.8224 4C41.7456 4 39.3251 6.48445 39.3251 9.55766C39.3251 12.6419 41.7456 15.1369 44.8224 15.1369C46.2426 15.1369 47.4904 14.5908 48.3943 13.7019V14.9227H50.008ZM44.9409 13.5736C42.7353 13.5736 40.9495 11.7745 40.9495 9.55766C40.9495 7.35201 42.7353 5.55276 44.9409 5.55276C46.3178 5.55276 47.6195 6.1954 48.2866 7.29818C48.3187 7.36247 48.3943 7.46961 48.3943 7.65163V11.4531C48.3833 11.6459 48.3187 11.7639 48.276 11.8174C47.555 12.8882 46.3178 13.5736 44.9409 13.5736ZM29.1693 18.1353V13.7019C30.0731 14.6016 31.321 15.1476 32.741 15.1476C35.8072 15.1476 38.2385 12.6525 38.2385 9.57931C38.2385 6.49507 35.8072 4 32.741 4C31.321 4 30.0731 4.5462 29.1693 5.43514V4.21425H27.5555V18.1353H29.1693ZM32.6228 13.5842C31.2456 13.5842 29.9654 12.9311 29.2768 11.8388C29.2339 11.7745 29.1693 11.6673 29.1693 11.4853V7.64106C29.1801 7.45879 29.2446 7.34105 29.2876 7.28771C30.0085 6.21683 31.2456 5.56336 32.6228 5.56336C34.8174 5.56336 36.6033 7.36246 36.6033 9.57931C36.6033 11.785 34.8174 13.5842 32.6228 13.5842Z" fill="#CBD2D9"/>
</svg>
