<svg width="58" height="24" viewBox="0 0 58 24" fill="none" xmlns="http://www.w3.org/2000/svg">
<g clip-path="url(#clip0)">
<path d="M10.6032 3.08246C9.92351 3.89005 8.83601 4.52701 7.74851 4.43602C7.61257 3.34408 8.14499 2.18389 8.76804 1.4673C9.44773 0.636967 10.6372 0.0454976 11.6001 0C11.7134 1.13744 11.2716 2.25213 10.6032 3.08246ZM11.5887 4.65213C10.0141 4.56114 8.66609 5.55071 7.91843 5.55071C7.15944 5.55071 6.0153 4.69763 4.76921 4.72038C3.14929 4.74313 1.64265 5.66446 0.815694 7.13175C-0.883524 10.0664 0.373898 14.4114 2.01648 16.8C2.82077 17.9829 3.78366 19.2796 5.05241 19.2341C6.25319 19.1886 6.72898 18.4493 8.17898 18.4493C9.6403 18.4493 10.0594 19.2341 11.3282 19.2114C12.6423 19.1886 13.4692 18.0284 14.2735 16.8455C15.1911 15.5033 15.5649 14.1953 15.5876 14.127C15.5649 14.1043 13.0501 13.1374 13.0274 10.2256C13.0048 7.79147 15.0098 6.63128 15.1005 6.56303C13.9676 4.87962 12.2005 4.69763 11.5887 4.65213Z" fill="#7B8794"/>
<path d="M53.1856 19.7801C52.0867 22.8853 50.8293 23.909 48.1559 23.909C47.952 23.909 47.2723 23.8862 47.1137 23.8407V21.7137C47.2836 21.7365 47.7028 21.7592 47.918 21.7592C49.1301 21.7592 49.8098 21.2474 50.2289 19.9165L50.4781 19.1317L45.8336 6.22176H48.6996L51.9281 16.6976H51.9848L55.2133 6.22176H58L53.1856 19.7801Z" fill="#CBD2D9"/>
<path fill-rule="evenodd" clip-rule="evenodd" d="M20.6852 1.35352V19.0862H23.4266V13.0237H27.2215C30.6879 13.0237 33.1235 10.635 33.1235 7.17721C33.1235 3.71939 30.7332 1.35352 27.3121 1.35352H20.6852ZM26.5871 3.67389H23.4266V10.7147H26.5758C28.966 10.7147 30.3254 9.42935 30.3254 7.18859C30.3254 4.94783 28.966 3.67389 26.5871 3.67389Z" fill="#CBD2D9"/>
<path fill-rule="evenodd" clip-rule="evenodd" d="M38.1305 19.2227C39.8524 19.2227 41.4496 18.3469 42.1746 16.9592H42.2313V19.0862H44.7688V10.2597C44.7688 7.70043 42.7297 6.05115 39.5918 6.05115C36.6805 6.05115 34.5281 7.72318 34.4489 10.0208H36.9184C37.1223 8.92887 38.1305 8.21228 39.5125 8.21228C41.1891 8.21228 42.1293 8.99712 42.1293 10.4417V11.4199L38.7082 11.6246C35.525 11.818 33.8031 13.126 33.8031 15.4009C33.8031 17.6985 35.5817 19.2227 38.1305 19.2227ZM36.4766 15.3327C36.4766 16.4132 37.4055 17.1184 38.8668 17.1184C40.7246 17.1184 42.1293 15.9355 42.1293 14.2748V13.2739L39.0821 13.4673C37.3715 13.5696 36.4766 14.218 36.4766 15.3327Z" fill="#CBD2D9"/>
</g>
<defs>
<clipPath id="clip0">
<rect width="58" height="24" fill="white"/>
</clipPath>
</defs>
</svg>
