<svg width="21" height="21" viewBox="0 0 21 21" fill="none" xmlns="http://www.w3.org/2000/svg">
<path d="M10 2V6H4.236L2.235 10H20V20C20 20.2652 19.8946 20.5196 19.7071 20.7071C19.5196 20.8946 19.2652 21 19 21H18C17.7348 21 17.4804 20.8946 17.2929 20.7071C17.1054 20.5196 17 20.2652 17 20V19H3V20C3 20.2652 2.89464 20.5196 2.70711 20.7071C2.51957 20.8946 2.26522 21 2 21H1C0.734784 21 0.48043 20.8946 0.292893 20.7071C0.105357 20.5196 0 20.2652 0 20V10L2.447 5.106C2.61313 4.77353 2.86862 4.49394 3.1848 4.29858C3.50098 4.10322 3.86534 3.99983 4.237 4H7V2H10ZM18 12H2V17H18V12ZM4.5 13C4.89782 13 5.27936 13.158 5.56066 13.4393C5.84196 13.7206 6 14.1022 6 14.5C6 14.8978 5.84196 15.2794 5.56066 15.5607C5.27936 15.842 4.89782 16 4.5 16C4.10218 16 3.72064 15.842 3.43934 15.5607C3.15804 15.2794 3 14.8978 3 14.5C3 14.1022 3.15804 13.7206 3.43934 13.4393C3.72064 13.158 4.10218 13 4.5 13ZM15.5 13C15.8978 13 16.2794 13.158 16.5607 13.4393C16.842 13.7206 17 14.1022 17 14.5C17 14.8978 16.842 15.2794 16.5607 15.5607C16.2794 15.842 15.8978 16 15.5 16C15.1022 16 14.7206 15.842 14.4393 15.5607C14.158 15.2794 14 14.8978 14 14.5C14 14.1022 14.158 13.7206 14.4393 13.4393C14.7206 13.158 15.1022 13 15.5 13ZM16.5 0C17.6935 0 18.8381 0.474106 19.682 1.31802C20.5259 2.16193 21 3.30653 21 4.5C21 5.69347 20.5259 6.83807 19.682 7.68198C18.8381 8.52589 17.6935 9 16.5 9C15.3065 9 14.1619 8.52589 13.318 7.68198C12.4741 6.83807 12 5.69347 12 4.5C12 3.30653 12.4741 2.16193 13.318 1.31802C14.1619 0.474106 15.3065 0 16.5 0ZM16.5 5.167C16.009 5.167 15.56 5.344 15.211 5.637L15.086 5.752L16.5 7.167L17.913 5.751C17.7275 5.56548 17.5072 5.4184 17.2647 5.31819C17.0222 5.21798 16.7624 5.1666 16.5 5.167ZM16.5 2.5C15.344 2.49826 14.2289 2.92714 13.372 3.703L13.199 3.868L14.143 4.81C14.4521 4.49989 14.8195 4.25394 15.224 4.08627C15.6285 3.9186 16.0621 3.83253 16.5 3.833C17.3104 3.83177 18.0932 4.12699 18.701 4.663L18.857 4.81L19.8 3.867C19.3671 3.43296 18.8528 3.08875 18.2864 2.85415C17.7201 2.61956 17.113 2.4992 16.5 2.5Z" fill="#9BBABD"/>
</svg>
