<svg width="13" height="13" viewBox="0 0 13 13" fill="none" xmlns="http://www.w3.org/2000/svg">
<path d="M12.125 11.5C12.125 11.6657 12.0592 11.8247 11.9419 11.9419C11.8247 12.0591 11.6658 12.125 11.5 12.125H1.5C1.33424 12.125 1.17527 12.0591 1.05806 11.9419C0.940848 11.8247 0.875 11.6657 0.875 11.5V4.93124C0.874934 4.83599 0.896636 4.742 0.938448 4.65642C0.980259 4.57085 1.04108 4.49597 1.11625 4.43749L6.11625 0.548737C6.22596 0.46339 6.361 0.417053 6.5 0.417053C6.639 0.417053 6.77404 0.46339 6.88375 0.548737L11.8837 4.43749C11.9589 4.49597 12.0197 4.57085 12.0616 4.65642C12.1034 4.742 12.1251 4.83599 12.125 4.93124V11.5ZM10.875 10.875V5.23624L6.5 1.83374L2.125 5.23624V10.875H10.875Z" fill="#7B8794"/>
</svg>
