<svg width="21" height="22" viewBox="0 0 21 22" fill="none" xmlns="http://www.w3.org/2000/svg">
<path fill-rule="evenodd" clip-rule="evenodd" d="M2.96081 0.00832778C3.45 0.0509562 3.95321 0.252231 4.4509 0.58488C4.91006 0.891779 4.91853 1.53764 4.53777 1.93769L4.43117 2.04969H11.4178L20.4064 11.0362C20.726 11.358 20.9806 11.8044 20.999 12.3397C21.0178 12.8904 20.7812 13.3811 20.4064 13.7585L20.3979 13.7671L17.7942 16.3264L15.4389 18.6981C14.9929 19.1472 14.4305 19.4012 13.8197 19.3671C13.2351 19.3344 12.7511 19.0458 12.4066 18.6994L12.4053 18.6981L3.60796 9.90423V7.7956L3.08054 8.96399L7.096 19.7665C7.13388 19.8653 7.16625 19.9354 7.19213 19.9843C7.23556 19.9741 7.29384 19.9574 7.36945 19.9304L10.9594 18.5934C11.477 18.4006 12.0528 18.6639 12.2455 19.1815C12.4383 19.699 12.175 20.2748 11.6574 20.4676L8.0511 21.8107C7.53231 21.9973 6.88266 22.1245 6.26577 21.8039C5.67881 21.4988 5.39708 20.9237 5.22614 20.4762L5.22294 20.4678L0.919464 8.89034L1.91902 6.67602C2.14624 6.17264 2.73851 5.94878 3.24189 6.176L3.60796 6.34125V4.46891C2.83312 4.16258 2.2298 3.76781 1.80085 3.31867C1.2704 2.76326 0.907142 1.99791 1.10584 1.22444C1.2086 0.824412 1.45652 0.477682 1.8206 0.255157C2.17529 0.0383737 2.57891 -0.0249513 2.96081 0.00832778ZM5.60796 4.04969V9.07557L13.8244 17.2888C13.8721 17.3368 13.9067 17.3572 13.9248 17.3656C13.9412 17.3565 13.9738 17.3351 14.0198 17.2888L16.3878 14.9043L18.9387 12.3969L10.5895 4.04969H5.60796Z" fill="#9BBABD"/>
</svg>
