<svg width="23" height="21" viewBox="0 0 23 21" fill="none" xmlns="http://www.w3.org/2000/svg">
<path fill-rule="evenodd" clip-rule="evenodd" d="M14 0C14.5523 0 15 0.447715 15 1H16.8198L17.2447 3.12428C18.6231 3.36353 19.6293 3.63686 20.3001 3.96637C20.6852 4.15557 21.0802 4.42013 21.3261 4.81868C21.6139 5.28497 21.6156 5.79758 21.43 6.23816C21.2698 6.61864 20.9858 6.91558 20.7333 7.13418C20.4676 7.36413 20.1517 7.57882 19.8278 7.77689C19.3799 8.05079 18.8583 8.32748 18.3389 8.59555L19.221 13.006C21.3274 13.1207 23 14.865 23 17C23 19.2091 21.2091 21 19 21C16.7909 21 15 19.2091 15 17C15 16.6238 15.0519 16.2597 15.1491 15.9145L13.4806 18H7.87398C7.42994 19.7252 5.86384 21 4 21C1.79086 21 0 19.2091 0 17C0 14.7909 1.79086 13 4 13C5.86384 13 7.42994 14.2748 7.87398 16H9C9 15.0175 8.59634 13.9958 7.92639 13.2231C7.25839 12.4525 6.39216 12 5.5 12C4.94772 12 4.5 11.5523 4.5 11C4.5 10.4477 4.94772 10 5.5 10C7.09313 10 8.47689 10.8048 9.43757 11.913C10.3963 13.0189 11 14.4972 11 16H12.5194L15.2849 12.5431C14.7391 12.3461 14.2958 12.1262 13.9622 11.8729C13.65 11.6359 13.3558 11.3109 13.2272 10.8727C13.0919 10.4117 13.1847 9.98128 13.3584 9.64017C13.6627 9.04278 14.2861 8.57885 14.8191 8.23611C15.2032 7.98911 15.6395 7.74553 16.0823 7.51056L15.1802 3H15C15 3.55228 14.5523 4 14 4C13.4477 4 13 3.55228 13 3H11C10.4477 3 10 2.55228 10 2C10 1.44772 10.4477 1 11 1H13C13 0.447715 13.4477 0 14 0ZM17.9303 6.55227C18.2394 6.3878 18.5271 6.22797 18.7843 6.07066C19 5.93876 19.176 5.81945 19.3133 5.71275C18.9747 5.56374 18.4465 5.40271 17.6679 5.24033L17.9303 6.55227ZM16.4931 9.56436C16.2804 9.6842 16.0817 9.80201 15.9008 9.91831C15.6083 10.1064 15.4183 10.2567 15.3006 10.3657C15.5366 10.5058 15.9501 10.6809 16.6233 10.8701L16.728 10.7392L16.4931 9.56436ZM17.2403 13.3004L17.2597 13.3974C17.2041 13.4243 17.1493 13.4524 17.0952 13.4818L17.2403 13.3004ZM17.6797 15.4977C17.263 15.8642 17 16.4014 17 17C17 18.1046 17.8954 19 19 19C20.1046 19 21 18.1046 21 17C21 16.1195 20.4311 15.372 19.6408 15.1049L19.9806 16.8039C20.0889 17.3454 19.7377 17.8723 19.1961 17.9806C18.6546 18.0889 18.1277 17.7377 18.0194 17.1961L17.6797 15.4977ZM5.73244 16C5.38663 15.4022 4.74028 15 4 15C2.89543 15 2 15.8954 2 17C2 18.1046 2.89543 19 4 19C4.74028 19 5.38663 18.5978 5.73244 18H4C3.44772 18 3 17.5523 3 17C3 16.4477 3.44772 16 4 16H5.73244Z" fill="#9BBABD"/>
</svg>
