<svg width="24" height="18" viewBox="0 0 24 18" fill="none" xmlns="http://www.w3.org/2000/svg">
<path fill-rule="evenodd" clip-rule="evenodd" d="M16.1267 0.225586C19.2986 0.22559 21.9423 2.834 22.0007 5.99368L23.4399 12.9666C23.4419 12.9761 23.4437 12.9856 23.4454 12.9951C24.0464 16.4049 19.7606 18.636 17.3121 16.188C17.2989 16.1748 17.286 16.1612 17.2735 16.1473L13.5542 11.9859L10.4804 11.9982L6.72338 16.1517C6.71216 16.1641 6.70063 16.1762 6.68881 16.188C4.24033 18.636 -0.0454677 16.4049 0.555518 12.9951L0.558702 12.978L2.09051 5.09555C2.58485 2.32177 5.05576 0.250936 7.87385 0.249984C7.87435 0.249984 7.87486 0.249984 7.87536 0.249984L16.1267 0.225586ZM16.2274 11.9756L18.7438 14.791C19.8103 15.8253 21.725 14.8242 21.4779 13.3549L20.7437 9.79761C19.7217 11.1014 18.139 11.9598 16.2274 11.9756ZM16.1281 2.22559C16.1277 2.22559 16.1272 2.22559 16.1267 2.22559L7.8784 2.24998L7.87551 2.24998C6.02413 2.25012 4.38045 3.62905 4.05846 5.45222L4.05534 5.46907L2.52384 13.3499C2.27141 14.8228 4.19168 15.8276 5.259 14.7892L9.29333 10.3292C9.48198 10.1206 9.74973 10.0011 10.0309 9.99999L16.1352 9.97555C18.4126 9.9949 20.0017 8.24152 20.0017 6.10059C20.0017 3.99809 18.2305 2.22638 16.1281 2.22559ZM8.25002 3.62498C8.80231 3.62498 9.25002 4.0727 9.25002 4.62498V5.12498H9.75002C10.3023 5.12498 10.75 5.5727 10.75 6.12498C10.75 6.67727 10.3023 7.12498 9.75002 7.12498H9.25002V7.62498C9.25002 8.17727 8.80231 8.62498 8.25002 8.62498C7.69774 8.62498 7.25002 8.17727 7.25002 7.62498V7.12498H6.75002C6.19773 7.12498 5.75002 6.67727 5.75002 6.12498C5.75002 5.5727 6.19773 5.12498 6.75002 5.12498H7.25002V4.62498C7.25002 4.0727 7.69774 3.62498 8.25002 3.62498ZM13.25 6.12498C13.25 5.5727 13.6977 5.12498 14.25 5.12498H17.25C17.8023 5.12498 18.25 5.5727 18.25 6.12498C18.25 6.67727 17.8023 7.12498 17.25 7.12498H14.25C13.6977 7.12498 13.25 6.67727 13.25 6.12498Z" fill="#9BBABD"/>
</svg>
