<svg width="20" height="19" viewBox="0 0 20 19" fill="none" xmlns="http://www.w3.org/2000/svg">
<path d="M2.00001 13H18V2H2.00001V13ZM11 15V17H15V19H5.00001V17H9.00001V15H0.99201C0.860696 14.9992 0.730827 14.9725 0.609848 14.9215C0.488869 14.8704 0.379157 14.7959 0.287002 14.7024C0.194846 14.6088 0.122059 14.498 0.0728109 14.3763C0.0235632 14.2546 -0.00117633 14.1243 1.02284e-05 13.993V1.007C1.02284e-05 0.451 0.45501 0 0.99201 0H19.008C19.556 0 20 0.449 20 1.007V13.993C20 14.549 19.545 15 19.008 15H11Z" fill="#9BBABD"/>
</svg>
