<svg width="40" height="24" viewBox="0 0 40 24" fill="none" xmlns="http://www.w3.org/2000/svg">
<path d="M12.3365 24C19.1497 24 24.6729 18.6274 24.6729 12C24.6729 5.37258 19.1497 0 12.3365 0C5.52322 0 0 5.37258 0 12C0 18.6274 5.52322 24 12.3365 24Z" fill="#CBD2D9"/>
<path d="M27.6636 24C34.4768 24 40.0001 18.6274 40.0001 12C40.0001 5.37258 34.4768 0 27.6636 0C20.8504 0 15.3271 5.37258 15.3271 12C15.3271 18.6274 20.8504 24 27.6636 24Z" fill="#CBD2D9"/>
<path d="M15.3273 11.9999C15.3273 15.8102 17.1532 19.2053 20.0001 21.4034C22.8468 19.2052 24.6729 15.8102 24.6729 11.9999C24.6729 8.18967 22.8469 4.79456 20.0001 2.59644C17.1533 4.79474 15.3273 8.18977 15.3273 11.9999Z" fill="#7B8794"/>
</svg>
