<svg width="72" height="20" viewBox="0 0 72 20" fill="none" xmlns="http://www.w3.org/2000/svg">
<path fill-rule="evenodd" clip-rule="evenodd" d="M6.65807 0.0033783C7.30131 -0.00050065 9.21298 -0.174057 10.0227 2.58075C10.5682 4.43642 11.4371 7.4761 12.6294 11.6998H13.1149C14.3936 7.24688 15.2719 4.2072 15.75 2.58075C16.5682 -0.202753 18.6136 0.00343285 19.4318 0.00343285L25.7443 0.00344079V19.7972H19.3104V8.13241H18.879L15.2925 19.7972H10.4518L6.86527 8.12376H6.43384V19.7972H0V0.00344079L6.65807 0.0033783ZM34.9831 0.00344079V11.6769H35.4964L39.8591 2.0779C40.706 0.167669 42.511 0.00344079 42.511 0.00344079H48.737V19.7972H42.1688V8.12376H41.6555L37.3784 17.7228C36.5315 19.6244 34.641 19.7972 34.641 19.7972H28.4149V0.00344079H34.9831ZM71.4396 9.40959C70.5234 12.0267 67.6462 13.901 64.4608 13.901H57.5727V19.7972H51.3267V9.40959H71.4396Z" fill="#CBD2D9"/>
<path fill-rule="evenodd" clip-rule="evenodd" d="M64.762 0.00341797H50.9991C51.3267 4.41019 55.0915 8.18268 58.9889 8.18268H71.8736C72.6172 4.52013 70.0575 0.00341797 64.762 0.00341797Z" fill="#7B8794"/>
</svg>
