<svg width="24" height="19" viewBox="0 0 24 19" fill="none" xmlns="http://www.w3.org/2000/svg">
<path fill-rule="evenodd" clip-rule="evenodd" d="M15.168 4.5547C13.5638 2.14844 10.4362 2.14844 8.83205 4.55469C8.5257 5.01422 7.90483 5.13839 7.4453 4.83204C6.98577 4.52569 6.8616 3.90482 7.16795 3.44529C9.56377 -0.148432 14.4362 -0.148429 16.8321 3.44529C17.1384 3.90482 17.0142 4.52569 16.5547 4.83205C16.0952 5.1384 15.4743 5.01423 15.168 4.5547ZM13.1679 6.55469C12.5638 5.64842 11.4362 5.64842 10.8321 6.55469C10.5257 7.01422 9.90483 7.1384 9.4453 6.83205C8.98577 6.5257 8.8616 5.90483 9.16795 5.4453C10.5638 3.35155 13.4362 3.35155 14.8321 5.4453C15.1384 5.90483 15.0142 6.5257 14.5547 6.83205C14.0952 7.1384 13.4743 7.01422 13.1679 6.55469ZM0 8C0 7.44771 0.447715 7 1 7H7C7.55228 7 8 7.44771 8 8C8 8.55228 7.55228 9 7 9H5V10H7V11H17V10H19V9H17C16.4477 9 16 8.55228 16 8C16 7.44771 16.4477 7 17 7H23C23.5523 7 24 7.44771 24 8C24 8.55228 23.5523 9 23 9H21V10H23V14C23 15.6569 21.6569 17 20 17C18.3431 17 17 15.6569 17 14V13H16V16C16 17.6569 14.6569 19 13 19H11C9.34315 19 8 17.6569 8 16V13H7V14C7 15.6569 5.65685 17 4 17C2.34315 17 1 15.6569 1 14V10H3V9H1C0.447715 9 0 8.55228 0 8ZM5 12L3 12V14C3 14.5523 3.44772 15 4 15C4.55228 15 5 14.5523 5 14V12ZM10 13V16C10 16.5523 10.4477 17 11 17H13C13.5523 17 14 16.5523 14 16V13H10ZM19 12V14C19 14.5523 19.4477 15 20 15C20.5523 15 21 14.5523 21 14V12L19 12ZM10.5 15C10.5 14.4477 10.9477 14 11.5 14H12.5C13.0523 14 13.5 14.4477 13.5 15C13.5 15.5523 13.0523 16 12.5 16H11.5C10.9477 16 10.5 15.5523 10.5 15Z" fill="#9BBABD"/>
<path d="M13 8C13 8.55228 12.5523 9 12 9C11.4477 9 11 8.55228 11 8C11 7.44772 11.4477 7 12 7C12.5523 7 13 7.44772 13 8Z" fill="#9BBABD"/>
</svg>
