<svg width="18" height="24" viewBox="0 0 18 24" fill="none" xmlns="http://www.w3.org/2000/svg">
<path fill-rule="evenodd" clip-rule="evenodd" d="M3.84049 1.51493C4.06308 0.624595 4.86304 0 5.78078 0H10.2192C11.137 0 11.9369 0.624595 12.1595 1.51493L12.7808 4H13C14.6569 4 16 5.34315 16 7V8H18V11H16V12H18V16H16V17C16 18.6569 14.6569 20 13 20H12.7808L12.1595 22.4851C11.9369 23.3754 11.137 24 10.2192 24H5.78078C4.86304 24 4.06308 23.3754 3.84049 22.4851L3.21922 20H3C1.34315 20 0 18.6569 0 17V7C0 5.34315 1.34315 4 3 4H3.21922L3.84049 1.51493ZM5.28078 4H10.7192L10.2192 2H5.78078L5.28078 4ZM5.28078 20L5.78078 22H10.2192L10.7192 20H5.28078ZM3 6C2.44772 6 2 6.44772 2 7V17C2 17.5523 2.44772 18 3 18H13C13.5523 18 14 17.5523 14 17V7C14 6.44772 13.5523 6 13 6H3ZM8.8762 7.01153L11.5352 11H13V13H10.4648L9.1238 10.9885L6.1238 16.9885L3.46482 13H3V11H4.53518L5.8762 13.0115L8.8762 7.01153Z" fill="#51777C"/>
</svg>
