<svg width="59" height="20" viewBox="0 0 59 20" fill="none" xmlns="http://www.w3.org/2000/svg">
<path d="M21.1601 0L17.9481 19.9599H23.0821L26.2922 0H21.1601ZM36.6462 8.13055C34.8521 7.24583 33.7522 6.64871 33.7522 5.74383C33.7742 4.92109 34.6823 4.0782 36.7102 4.0782C38.3782 4.03636 39.6042 4.4278 40.5343 4.81726L41.0002 5.02492L41.6982 0.848803C40.6841 0.457368 39.0762 0.0260655 37.0902 0.0260655C32.0202 0.0260655 28.4502 2.65834 28.428 6.42309C28.3861 9.20125 30.984 10.7429 32.9281 11.6677C34.9142 12.6164 35.5902 13.2315 35.5902 14.0744C35.5683 15.3685 33.9843 15.9656 32.5063 15.9656C30.4584 15.9656 29.3583 15.6581 27.6884 14.937L27.0123 14.6294L26.2944 18.9694C27.5004 19.5047 29.7183 19.9759 32.0204 20C37.4085 20 40.9144 17.4076 40.9585 13.3953C40.976 11.1943 39.6062 9.50857 36.6462 8.13055ZM54.8601 0.0617705H50.8881C49.6641 0.0617705 48.734 0.41334 48.204 1.6676L40.5779 19.9599H45.9659L47.4499 15.9996H53.478L54.2479 19.9759H59L54.8601 0.0617705ZM48.9441 12.0028C49.0481 12.0129 51.0122 5.53792 51.0122 5.53792L52.5762 12.0028C52.5762 12.0028 49.9582 12.0028 48.9441 12.0028ZM13.6582 0L8.62815 13.5609L8.0802 10.8866C7.15013 7.80088 4.23424 4.44773 0.980103 2.7821L5.58613 19.94H11.0182L19.0903 0.00218926H13.6582V0Z" fill="#CBD2D9"/>
</svg>
