<svg width="20" height="18" viewBox="0 0 20 18" fill="none" xmlns="http://www.w3.org/2000/svg">
<path d="M17.5 10.0351V15.6667H18.3333V17.3334H1.66665V15.6667H2.49998V10.0351C1.98696 9.69266 1.56641 9.22887 1.27566 8.68489C0.984919 8.1409 0.832973 7.53355 0.833314 6.91675C0.833314 6.22758 1.01998 5.56342 1.36081 4.99758L3.62081 1.08341C3.69395 0.956735 3.79915 0.851539 3.92583 0.778399C4.0525 0.705259 4.1962 0.666752 4.34248 0.666748H15.6583C15.8046 0.666752 15.9483 0.705259 16.075 0.778399C16.2016 0.851539 16.3068 0.956735 16.38 1.08341L18.6316 4.98508C19.1288 5.81081 19.2886 6.79636 19.0778 7.73686C18.8671 8.67737 18.302 9.50048 17.5 10.0351ZM15.8333 10.6434C15.2603 10.7077 14.6803 10.6389 14.1382 10.4423C13.5962 10.2457 13.1069 9.9267 12.7083 9.51008C12.3585 9.87597 11.9381 10.1672 11.4727 10.3661C11.0072 10.5651 10.5062 10.6676 9.99998 10.6676C9.49389 10.6678 8.99298 10.5655 8.5275 10.3669C8.06202 10.1682 7.64162 9.87734 7.29165 9.51175C6.893 9.92822 6.40363 10.2471 5.86161 10.4435C5.31959 10.6399 4.73955 10.7086 4.16665 10.6442V15.6667H15.8333V10.6442V10.6434ZM4.82415 2.33341L2.79665 5.84425C2.59963 6.33104 2.59371 6.87427 2.78009 7.36523C2.96646 7.85619 3.33138 8.25866 3.8018 8.49208C4.27222 8.7255 4.81343 8.77265 5.31713 8.6241C5.82083 8.47554 6.24984 8.14225 6.51831 7.69092C6.79748 6.99341 7.78498 6.99341 8.06498 7.69092C8.2194 8.07793 8.48631 8.40975 8.83125 8.6435C9.17619 8.87726 9.5833 9.0022 9.99998 9.0022C10.4167 9.0022 10.8238 8.87726 11.1687 8.6435C11.5136 8.40975 11.7806 8.07793 11.935 7.69092C12.2141 6.99341 13.2016 6.99341 13.4816 7.69092C13.5898 7.95712 13.7518 8.19808 13.9576 8.39864C14.1634 8.59921 14.4084 8.75504 14.6773 8.85635C14.9461 8.95766 15.2331 9.00225 15.52 8.98732C15.807 8.97239 16.0877 8.89826 16.3447 8.7696C16.6016 8.64094 16.8291 8.46052 17.0129 8.23969C17.1968 8.01886 17.3329 7.76239 17.4129 7.48639C17.4928 7.2104 17.5148 6.92086 17.4774 6.63596C17.4401 6.35106 17.3442 6.07697 17.1958 5.83091L15.175 2.33341H4.82498H4.82415Z" fill="#9BBABD"/>
</svg>
